# xmcd
#
# Track frame offsets: 
#        150
#        15728
#        38027
#        58410
#        73525
#        90974
#        107338
#        126209
#        147440
#        171956
#        192203
#        211903
#        232018
#
# Disc length: 3600 seconds
#
# Revision: 0
# Processed by: cddbd v1.5.1PL0 Copyright (c) Steve Scherf et al.
# Submitted via: ExactAudioCopy v0.95a4
#
DISCID=b30e0e0d
DTITLE=Deekline and Wizard - Breaks, Beats and Blondes
DYEAR=2004
DGENRE=Breakbeat
TTITLE0=Why Don't You
TTITLE1=The Truth Is A Lie
TTITLE2=Sun Is Shining
TTITLE3=Feel The Heat
TTITLE4=All Your Love
TTITLE5=Wasting Time
TTITLE6=4X4X4
TTITLE7=Bushpig
TTITLE8=The Bodypopper
TTITLE9=Ill Street Blues
TTITLE10=Blo Dem Away
TTITLE11=Screetch (Beats For The Jeep)
TTITLE12=Soulmonster
EXTD=
EXTT0=
EXTT1=
EXTT2=
EXTT3=
EXTT4=
EXTT5=
EXTT6=
EXTT7=
EXTT8=
EXTT9=
EXTT10=
EXTT11=
EXTT12=
PLAYORDER=
